{
  "accessors": [
    {
      "bufferView": 2,
      "componentType": 5126,
      "count": 37819,
      "max": [
        3.7879886627197266,
        7.96911096572876,
        2.4432809352874756
      ],
      "min": [
        -3.7879886627197266,
        -0.009675263427197933,
        -2.71633243560791
      ],
      "type": "VEC3"
    },
    {
      "bufferView": 2,
      "byteOffset": 453828,
      "componentType": 5126,
      "count": 37819,
      "max": [
        0.9999985098838806,
        1.0,
        1.0
      ],
      "min": [
        -0.9999985694885254,
        -0.9999994039535522,
        -1.0
      ],
      "type": "VEC3"
    },
    {
      "bufferView": 1,
      "componentType": 5126,
      "count": 37819,
      "max": [
        0.9836490154266357,
        0.9804611802101135
      ],
      "min": [
        0.025546103715896606,
        0.09931738674640656
      ],
      "type": "VEC2"
    },
    {
      "bufferView": 0,
      "componentType": 5125,
      "count": 217368,
      "type": "SCALAR"
    }
  ],
  "asset": {
    "extras": {
      "author": "celene_08 (https://sketchfab.com/celene_08)",
      "license": "CC-BY-4.0 (http://creativecommons.org/licenses/by/4.0/)",
      "source": "https://sketchfab.com/3d-models/genshin-impact-arama-cb46071a28c4452292e696b92c0208e4",
      "title": "Genshin Impact Arama"
    },
    "generator": "Sketchfab-14.5.0",
    "version": "2.0"
  },
  "bufferViews": [
    {
      "buffer": 0,
      "byteLength": 869472,
      "name": "floatBufferViews",
      "target": 34963
    },
    {
      "buffer": 0,
      "byteLength": 302552,
      "byteOffset": 869472,
      "byteStride": 8,
      "name": "floatBufferViews",
      "target": 34962
    },
    {
      "buffer": 0,
      "byteLength": 907656,
      "byteOffset": 1172024,
      "byteStride": 12,
      "name": "floatBufferViews",
      "target": 34962
    }
  ],
  "buffers": [
    {
      "byteLength": 2079680,
      "uri": "scene.bin"
    }
  ],
  "images": [
    {
      "uri": "textures/Arama_T_baseColor.png"
    }
  ],
  "materials": [
    {
      "doubleSided": true,
      "name": "Arama_T",
      "pbrMetallicRoughness": {
        "baseColorTexture": {
          "index": 0
        },
        "metallicFactor": 0.0,
        "roughnessFactor": 0.5
      }
    }
  ],
  "meshes": [
    {
      "name": "Object_0",
      "primitives": [
        {
          "attributes": {
            "NORMAL": 1,
            "POSITION": 0,
            "TEXCOORD_0": 2
          },
          "indices": 3,
          "material": 0,
          "mode": 4
        }
      ]
    }
  ],
  "nodes": [
    {
      "children": [
        1
      ],
      "matrix": [
        1.0,
        0.0,
        0.0,
        0.0,
        0.0,
        2.220446049250313e-16,
        -1.0,
        0.0,
        0.0,
        1.0,
        2.220446049250313e-16,
        0.0,
        0.0,
        0.0,
        0.0,
        1.0
      ],
      "name": "Sketchfab_model"
    },
    {
      "children": [
        2
      ],
      "name": "root"
    },
    {
      "children": [
        3
      ],
      "matrix": [
        1.0,
        0.0,
        0.0,
        0.0,
        0.0,
        2.220446049250313e-16,
        1.0,
        0.0,
        0.0,
        -1.0,
        2.220446049250313e-16,
        0.0,
        0.0,
        0.0,
        0.0,
        1.0
      ],
      "name": "GLTF_SceneRootNode"
    },
    {
      "children": [
        4
      ],
      "matrix": [
        1.1540825366973877,
        0.0,
        0.0,
        0.0,
        0.0,
        1.1540825366973877,
        0.0,
        0.0,
        0.0,
        0.0,
        1.1540825366973877,
        0.0,
        0.0,
        0.016260147094726563,
        0.0,
        1.0
      ],
      "name": "Circle.001_0"
    },
    {
      "mesh": 0,
      "name": "Object_4"
    }
  ],
  "samplers": [
    {
      "magFilter": 9729,
      "minFilter": 9987,
      "wrapS": 10497,
      "wrapT": 10497
    }
  ],
  "scene": 0,
  "scenes": [
    {
      "name": "Sketchfab_Scene",
      "nodes": [
        0
      ]
    }
  ],
  "textures": [
    {
      "sampler": 0,
      "source": 0
    }
  ]
}
