{
  "accessors": [
    {
      "bufferView": 2,
      "componentType": 5126,
      "count": 40,
      "max": [
        -0.215327650308609,
        1.383586049079895,
        2.963146209716797
      ],
      "min": [
        -0.8832433223724365,
        0.1947213113307953,
        0.7287911176681519
      ],
      "type": "VEC3"
    },
    {
      "bufferView": 2,
      "byteOffset": 480,
      "componentType": 5126,
      "count": 40,
      "max": [
        0.9966680407524109,
        0.9969826936721802,
        0.9699528217315674
      ],
      "min": [
        -0.9651718735694885,
        -0.910252571105957,
        -0.8234376907348633
      ],
      "type": "VEC3"
    },
    {
      "bufferView": 1,
      "componentType": 5126,
      "count": 40,
      "max": [
        0.0,
        0.0
      ],
      "min": [
        0.0,
        0.0
      ],
      "type": "VEC2"
    },
    {
      "bufferView": 0,
      "componentType": 5125,
      "count": 228,
      "type": "SCALAR"
    },
    {
      "bufferView": 2,
      "byteOffset": 960,
      "componentType": 5126,
      "count": 559,
      "max": [
        1.000000238418579,
        1.0,
        1.0
      ],
      "min": [
        -0.9999998211860657,
        -1.0000003576278687,
        -1.0
      ],
      "type": "VEC3"
    },
    {
      "bufferView": 2,
      "byteOffset": 7668,
      "componentType": 5126,
      "count": 559,
      "max": [
        1.0,
        1.0,
        1.0
      ],
      "min": [
        -1.0,
        -1.0,
        -1.0
      ],
      "type": "VEC3"
    },
    {
      "bufferView": 1,
      "byteOffset": 320,
      "componentType": 5126,
      "count": 559,
      "max": [
        1.000000238418579,
        1.0
      ],
      "min": [
        0.0,
        0.0
      ],
      "type": "VEC2"
    },
    {
      "bufferView": 0,
      "byteOffset": 912,
      "componentType": 5125,
      "count": 2880,
      "type": "SCALAR"
    },
    {
      "bufferView": 2,
      "byteOffset": 14376,
      "componentType": 5126,
      "count": 760,
      "max": [
        0.5848543047904968,
        1.2768794298171997,
        2.5307765007019043
      ],
      "min": [
        -2.470038414001465,
        -1.273391842842102,
        -7.246644496917725
      ],
      "type": "VEC3"
    },
    {
      "bufferView": 2,
      "byteOffset": 23496,
      "componentType": 5126,
      "count": 760,
      "max": [
        1.0,
        1.0,
        1.0
      ],
      "min": [
        -1.0,
        -1.0,
        -1.0
      ],
      "type": "VEC3"
    },
    {
      "bufferView": 1,
      "byteOffset": 4792,
      "componentType": 5126,
      "count": 760,
      "max": [
        0.8750002384185791,
        1.000000238418579
      ],
      "min": [
        0.1250000149011612,
        0.0
      ],
      "type": "VEC2"
    },
    {
      "bufferView": 0,
      "byteOffset": 12432,
      "componentType": 5125,
      "count": 3456,
      "type": "SCALAR"
    },
    {
      "bufferView": 2,
      "byteOffset": 32616,
      "componentType": 5126,
      "count": 40,
      "max": [
        -0.22735045850276947,
        -0.24121159315109253,
        2.9139466285705566
      ],
      "min": [
        -0.8154482841491699,
        -1.3429324626922607,
        0.8845610618591309
      ],
      "type": "VEC3"
    },
    {
      "bufferView": 2,
      "byteOffset": 33096,
      "componentType": 5126,
      "count": 40,
      "max": [
        0.9896547794342041,
        0.8636662364006042,
        0.8567190170288086
      ],
      "min": [
        -0.9901145100593567,
        -0.9963776469230652,
        -0.900585412979126
      ],
      "type": "VEC3"
    },
    {
      "bufferView": 1,
      "byteOffset": 10872,
      "componentType": 5126,
      "count": 40,
      "max": [
        0.0,
        0.0
      ],
      "min": [
        0.0,
        0.0
      ],
      "type": "VEC2"
    },
    {
      "bufferView": 0,
      "byteOffset": 26256,
      "componentType": 5125,
      "count": 228,
      "type": "SCALAR"
    },
    {
      "bufferView": 2,
      "byteOffset": 33576,
      "componentType": 5126,
      "count": 361,
      "max": [
        0.21121740341186523,
        4.569234371185303,
        -1.8511708974838257
      ],
      "min": [
        -2.2792139053344727,
        -0.09622958302497864,
        -7.408530235290527
      ],
      "type": "VEC3"
    },
    {
      "bufferView": 2,
      "byteOffset": 37908,
      "componentType": 5126,
      "count": 361,
      "max": [
        0.9901397228240967,
        0.9690799713134766,
        0.9965023398399353
      ],
      "min": [
        -0.9825412631034851,
        -0.9867408871650696,
        -0.9808950424194336
      ],
      "type": "VEC3"
    },
    {
      "bufferView": 1,
      "byteOffset": 11192,
      "componentType": 5126,
      "count": 361,
      "max": [
        1.0,
        1.0
      ],
      "min": [
        0.0,
        0.01000000536441803
      ],
      "type": "VEC2"
    },
    {
      "bufferView": 0,
      "byteOffset": 27168,
      "componentType": 5125,
      "count": 1716,
      "type": "SCALAR"
    }
  ],
  "asset": {
    "extras": {
      "author": "aka-ryuu (https://sketchfab.com/aka-ryuu)",
      "license": "CC-BY-4.0 (http://creativecommons.org/licenses/by/4.0/)",
      "source": "https://sketchfab.com/3d-models/neko-gus-amongus-charachter-dbc2c54ec5584064b01cd1c99c32c26b",
      "title": "neko-gus amongus charachter"
    },
    "generator": "Sketchfab-12.65.0",
    "version": "2.0"
  },
  "bufferViews": [
    {
      "buffer": 0,
      "byteLength": 34032,
      "name": "floatBufferViews",
      "target": 34963
    },
    {
      "buffer": 0,
      "byteLength": 14080,
      "byteOffset": 34032,
      "byteStride": 8,
      "name": "floatBufferViews",
      "target": 34962
    },
    {
      "buffer": 0,
      "byteLength": 42240,
      "byteOffset": 48112,
      "byteStride": 12,
      "name": "floatBufferViews",
      "target": 34962
    }
  ],
  "buffers": [
    {
      "byteLength": 90352,
      "uri": "scene.bin"
    }
  ],
  "images": [
    {
      "uri": "textures/EAR_2_baseColor.png"
    }
  ],
  "materials": [
    {
      "doubleSided": true,
      "name": "EAR_2",
      "pbrMetallicRoughness": {
        "baseColorTexture": {
          "index": 0
        },
        "metallicFactor": 0.0,
        "roughnessFactor": 0.8211145618000169
      }
    },
    {
      "doubleSided": true,
      "name": "MASK",
      "pbrMetallicRoughness": {
        "baseColorFactor": [
          0.1980925497479128,
          0.6710458611138532,
          0.7076012526892669,
          1.0
        ],
        "metallicFactor": 0.0,
        "roughnessFactor": 0.4024329812913071
      }
    },
    {
      "doubleSided": true,
      "name": "Material",
      "pbrMetallicRoughness": {
        "baseColorFactor": [
          1.0,
          0.11962991858669911,
          0.16767193976794265,
          1.0
        ],
        "metallicFactor": 0.0,
        "roughnessFactor": 0.6583687503420098
      }
    },
    {
      "doubleSided": true,
      "name": "EAR_1",
      "pbrMetallicRoughness": {
        "baseColorTexture": {
          "index": 0
        },
        "metallicFactor": 0.0,
        "roughnessFactor": 0.8211145618000169
      }
    },
    {
      "doubleSided": true,
      "name": "TAIL",
      "pbrMetallicRoughness": {
        "baseColorTexture": {
          "index": 0
        },
        "metallicFactor": 0.3421997458487618
      }
    }
  ],
  "meshes": [
    {
      "name": "right ear_EAR 2_0",
      "primitives": [
        {
          "attributes": {
            "NORMAL": 1,
            "POSITION": 0,
            "TEXCOORD_0": 2
          },
          "indices": 3,
          "material": 0,
          "mode": 4
        }
      ]
    },
    {
      "name": "mask_MASK_0",
      "primitives": [
        {
          "attributes": {
            "NORMAL": 5,
            "POSITION": 4,
            "TEXCOORD_0": 6
          },
          "indices": 7,
          "material": 1,
          "mode": 4
        }
      ]
    },
    {
      "name": "body_Material_0",
      "primitives": [
        {
          "attributes": {
            "NORMAL": 9,
            "POSITION": 8,
            "TEXCOORD_0": 10
          },
          "indices": 11,
          "material": 2,
          "mode": 4
        }
      ]
    },
    {
      "name": "left ear_EAR 1_0",
      "primitives": [
        {
          "attributes": {
            "NORMAL": 13,
            "POSITION": 12,
            "TEXCOORD_0": 14
          },
          "indices": 15,
          "material": 3,
          "mode": 4
        }
      ]
    },
    {
      "name": "tail_TAIL_0",
      "primitives": [
        {
          "attributes": {
            "NORMAL": 17,
            "POSITION": 16,
            "TEXCOORD_0": 18
          },
          "indices": 19,
          "material": 4,
          "mode": 4
        }
      ]
    }
  ],
  "nodes": [
    {
      "children": [
        1
      ],
      "matrix": [
        1.0,
        0.0,
        0.0,
        0.0,
        0.0,
        2.220446049250313e-16,
        -1.0,
        0.0,
        0.0,
        1.0,
        2.220446049250313e-16,
        0.0,
        0.0,
        0.0,
        0.0,
        1.0
      ],
      "name": "Sketchfab_model"
    },
    {
      "children": [
        2
      ],
      "matrix": [
        1.0,
        0.0,
        0.0,
        0.0,
        0.0,
        0.0,
        1.0,
        0.0,
        0.0,
        -1.0,
        0.0,
        0.0,
        0.0,
        0.0,
        0.0,
        1.0
      ],
      "name": "8e4769b0ebfc4d05a9d287914ebba82f.fbx"
    },
    {
      "children": [
        3,
        5,
        7,
        9,
        11
      ],
      "name": "RootNode"
    },
    {
      "children": [
        4
      ],
      "matrix": [
        78.24297332763672,
        -2.914778242071196e-07,
        -5.829556484142391e-07,
        0.0,
        -5.343013575725061e-07,
        -1.1683481787123588e-05,
        -71.71269989013577,
        0.0,
        1.4459190676872709e-07,
        38.813602447509254,
        -6.323538480392742e-06,
        0.0,
        -108.5911865234375,
        247.13375854492188,
        -18.629169464111328,
        1.0
      ],
      "name": "right ear"
    },
    {
      "mesh": 0,
      "name": "right ear_EAR 2_0"
    },
    {
      "children": [
        6
      ],
      "matrix": [
        78.24297332763672,
        -2.914778242071196e-07,
        -5.829556484142391e-07,
        0.0,
        -5.343013575725061e-07,
        -1.1683481787123588e-05,
        -71.71269989013577,
        0.0,
        1.4459190676872709e-07,
        38.813602447509254,
        -6.323538480392742e-06,
        0.0,
        -109.44845581054688,
        248.67405700683594,
        -10.756921768188477,
        1.0
      ],
      "name": "mask"
    },
    {
      "mesh": 1,
      "name": "mask_MASK_0"
    },
    {
      "children": [
        8
      ],
      "matrix": [
        78.24297332763672,
        -2.914778242071196e-07,
        -5.829556484142391e-07,
        0.0,
        -5.343013575725061e-07,
        -1.1683481787123588e-05,
        -71.71269989013577,
        0.0,
        1.4459190676872709e-07,
        38.813602447509254,
        -6.323538480392742e-06,
        0.0,
        -109.44845581054688,
        248.67405700683594,
        -10.756921768188477,
        1.0
      ],
      "name": "body"
    },
    {
      "mesh": 2,
      "name": "body_Material_0"
    },
    {
      "children": [
        10
      ],
      "matrix": [
        78.24297332763672,
        -2.914778242071196e-07,
        -5.829556484142391e-07,
        0.0,
        -5.343013575725061e-07,
        -1.1683481787123588e-05,
        -71.71269989013577,
        0.0,
        1.4459190676872709e-07,
        38.813602447509254,
        -6.323538480392742e-06,
        0.0,
        -109.44845581054688,
        248.67405700683594,
        -10.756921768188477,
        1.0
      ],
      "name": "left ear"
    },
    {
      "mesh": 3,
      "name": "left ear_EAR 1_0"
    },
    {
      "children": [
        12
      ],
      "matrix": [
        78.24297332763672,
        -2.914778242071196e-07,
        -5.829556484142391e-07,
        0.0,
        -5.343013575725061e-07,
        -1.1683481787123588e-05,
        -71.71269989013577,
        0.0,
        1.4459190676872709e-07,
        38.813602447509254,
        -6.323538480392742e-06,
        0.0,
        -109.44845581054688,
        248.67405700683594,
        -10.756921768188477,
        1.0
      ],
      "name": "tail"
    },
    {
      "mesh": 4,
      "name": "tail_TAIL_0"
    }
  ],
  "samplers": [
    {
      "magFilter": 9729,
      "minFilter": 9987,
      "wrapS": 10497,
      "wrapT": 10497
    }
  ],
  "scene": 0,
  "scenes": [
    {
      "name": "Sketchfab_Scene",
      "nodes": [
        0
      ]
    }
  ],
  "textures": [
    {
      "sampler": 0,
      "source": 0
    }
  ]
}
