{
  "accessors": [
    {
      "bufferView": 2,
      "componentType": 5126,
      "count": 444,
      "max": [
        0.25279995799064636,
        0.38386011123657227,
        0.1322396844625473
      ],
      "min": [
        -0.25279903411865234,
        0.0018025184981524944,
        -0.2378540188074112
      ],
      "type": "VEC3"
    },
    {
      "bufferView": 2,
      "byteOffset": 5328,
      "componentType": 5126,
      "count": 444,
      "max": [
        0.9993436932563782,
        0.9999998807907104,
        0.9998257756233215
      ],
      "min": [
        -0.9993436336517334,
        -0.9984516501426697,
        -0.9923766851425171
      ],
      "type": "VEC3"
    },
    {
      "bufferView": 1,
      "componentType": 5126,
      "count": 444,
      "max": [
        0.9727129936218262,
        0.9749799966812134
      ],
      "min": [
        0.023054800927639008,
        0.03312459960579872
      ],
      "type": "VEC2"
    },
    {
      "bufferView": 0,
      "componentType": 5125,
      "count": 1716,
      "type": "SCALAR"
    },
    {
      "bufferView": 2,
      "byteOffset": 10656,
      "componentType": 5126,
      "count": 10,
      "max": [
        0.10689287632703781,
        0.3512696921825409,
        0.12276603281497955
      ],
      "min": [
        -0.10689212381839752,
        0.2958376109600067,
        0.07031475007534027
      ],
      "type": "VEC3"
    },
    {
      "bufferView": 2,
      "byteOffset": 10776,
      "componentType": 5126,
      "count": 10,
      "max": [
        0.7021633982658386,
        0.8116339445114136,
        0.8953564167022705
      ],
      "min": [
        -0.7021637558937073,
        0.27051398158073425,
        0.5080892443656921
      ],
      "type": "VEC3"
    },
    {
      "bufferView": 1,
      "byteOffset": 3552,
      "componentType": 5126,
      "count": 10,
      "max": [
        1.2351499795913696,
        0.9699710011482239
      ],
      "min": [
        1.0311000347137451,
        0.525534987449646
      ],
      "type": "VEC2"
    },
    {
      "bufferView": 0,
      "byteOffset": 6864,
      "componentType": 5125,
      "count": 18,
      "type": "SCALAR"
    },
    {
      "bufferView": 2,
      "byteOffset": 10896,
      "componentType": 5126,
      "count": 15,
      "max": [
        0.10689287632703781,
        0.2986348569393158,
        0.13615396618843079
      ],
      "min": [
        -0.10689212381839752,
        0.2056729942560196,
        0.07682403177022934
      ],
      "type": "VEC3"
    },
    {
      "bufferView": 2,
      "byteOffset": 11076,
      "componentType": 5126,
      "count": 15,
      "max": [
        0.7086544632911682,
        0.2810806930065155,
        0.9821944236755371
      ],
      "min": [
        -0.708656370639801,
        -0.6816138625144958,
        0.5670961737632751
      ],
      "type": "VEC3"
    },
    {
      "bufferView": 1,
      "byteOffset": 3632,
      "componentType": 5126,
      "count": 15,
      "max": [
        -0.77115398645401,
        0.9695249795913696
      ],
      "min": [
        -0.9706169962882996,
        0.5291770100593567
      ],
      "type": "VEC2"
    },
    {
      "bufferView": 0,
      "byteOffset": 6936,
      "componentType": 5125,
      "count": 48,
      "type": "SCALAR"
    },
    {
      "bufferView": 2,
      "byteOffset": 11256,
      "componentType": 5126,
      "count": 15,
      "max": [
        0.10689287632703781,
        0.2986348569393158,
        0.13615396618843079
      ],
      "min": [
        -0.10689212381839752,
        0.2056729942560196,
        0.07682403177022934
      ],
      "type": "VEC3"
    },
    {
      "bufferView": 2,
      "byteOffset": 11436,
      "componentType": 5126,
      "count": 15,
      "max": [
        0.7086544632911682,
        0.2810806930065155,
        0.9821944236755371
      ],
      "min": [
        -0.708656370639801,
        -0.6816138625144958,
        0.5670961737632751
      ],
      "type": "VEC3"
    },
    {
      "bufferView": 1,
      "byteOffset": 3752,
      "componentType": 5126,
      "count": 15,
      "max": [
        -0.77115398645401,
        0.9695249795913696
      ],
      "min": [
        -0.9706169962882996,
        0.5291770100593567
      ],
      "type": "VEC2"
    },
    {
      "bufferView": 0,
      "byteOffset": 7128,
      "componentType": 5125,
      "count": 48,
      "type": "SCALAR"
    },
    {
      "bufferView": 2,
      "byteOffset": 11616,
      "componentType": 5126,
      "count": 10,
      "max": [
        0.10689287632703781,
        0.3512696921825409,
        0.12276603281497955
      ],
      "min": [
        -0.10689212381839752,
        0.2958376109600067,
        0.07031475007534027
      ],
      "type": "VEC3"
    },
    {
      "bufferView": 2,
      "byteOffset": 11736,
      "componentType": 5126,
      "count": 10,
      "max": [
        0.7021633982658386,
        0.8116339445114136,
        0.8953564167022705
      ],
      "min": [
        -0.7021637558937073,
        0.27051398158073425,
        0.5080892443656921
      ],
      "type": "VEC3"
    },
    {
      "bufferView": 1,
      "byteOffset": 3872,
      "componentType": 5126,
      "count": 10,
      "max": [
        1.2351499795913696,
        0.9699710011482239
      ],
      "min": [
        1.0311000347137451,
        0.525534987449646
      ],
      "type": "VEC2"
    },
    {
      "bufferView": 0,
      "byteOffset": 7320,
      "componentType": 5125,
      "count": 18,
      "type": "SCALAR"
    },
    {
      "bufferView": 2,
      "byteOffset": 11856,
      "componentType": 5126,
      "count": 444,
      "max": [
        0.25279995799064636,
        0.38386011123657227,
        0.1322396844625473
      ],
      "min": [
        -0.25279903411865234,
        0.0018025184981524944,
        -0.2378540188074112
      ],
      "type": "VEC3"
    },
    {
      "bufferView": 2,
      "byteOffset": 17184,
      "componentType": 5126,
      "count": 444,
      "max": [
        0.9993436932563782,
        0.9999998807907104,
        0.9998257756233215
      ],
      "min": [
        -0.9993436336517334,
        -0.9984516501426697,
        -0.9923766851425171
      ],
      "type": "VEC3"
    },
    {
      "bufferView": 1,
      "byteOffset": 3952,
      "componentType": 5126,
      "count": 444,
      "max": [
        0.9727129936218262,
        0.9749799966812134
      ],
      "min": [
        0.023054800927639008,
        0.03312459960579872
      ],
      "type": "VEC2"
    },
    {
      "bufferView": 0,
      "byteOffset": 7392,
      "componentType": 5125,
      "count": 1716,
      "type": "SCALAR"
    }
  ],
  "asset": {
    "extras": {
      "author": "nguyenlouis32 (https://sketchfab.com/nguyenlouis32)",
      "license": "CC-BY-4.0 (http://creativecommons.org/licenses/by/4.0/)",
      "source": "https://sketchfab.com/3d-models/wooper-2cff7d965cc24d86998065ff7c6fc7b3",
      "title": "Wooper"
    },
    "generator": "Sketchfab-13.31.0",
    "version": "2.0"
  },
  "bufferViews": [
    {
      "buffer": 0,
      "byteLength": 14256,
      "name": "floatBufferViews",
      "target": 34963
    },
    {
      "buffer": 0,
      "byteLength": 7504,
      "byteOffset": 14256,
      "byteStride": 8,
      "name": "floatBufferViews",
      "target": 34962
    },
    {
      "buffer": 0,
      "byteLength": 22512,
      "byteOffset": 21760,
      "byteStride": 12,
      "name": "floatBufferViews",
      "target": 34962
    }
  ],
  "buffers": [
    {
      "byteLength": 44272,
      "uri": "scene.bin"
    }
  ],
  "images": [
    {
      "uri": "textures/body_mat_baseColor.png"
    },
    {
      "uri": "textures/eye_mat_baseColor.png"
    },
    {
      "uri": "textures/mouth_mat_baseColor.png"
    }
  ],
  "materials": [
    {
      "doubleSided": true,
      "name": "body_mat",
      "pbrMetallicRoughness": {
        "baseColorTexture": {
          "index": 0
        },
        "metallicFactor": 0.0,
        "roughnessFactor": 0.6
      }
    },
    {
      "doubleSided": true,
      "name": "eye_mat",
      "pbrMetallicRoughness": {
        "baseColorTexture": {
          "index": 1
        },
        "metallicFactor": 0.0,
        "roughnessFactor": 0.6
      }
    },
    {
      "doubleSided": true,
      "name": "mouth_mat",
      "pbrMetallicRoughness": {
        "baseColorTexture": {
          "index": 2
        },
        "metallicFactor": 0.0,
        "roughnessFactor": 0.6
      }
    }
  ],
  "meshes": [
    {
      "name": "Object_0",
      "primitives": [
        {
          "attributes": {
            "NORMAL": 1,
            "POSITION": 0,
            "TEXCOORD_0": 2
          },
          "indices": 3,
          "material": 0,
          "mode": 4
        }
      ]
    },
    {
      "name": "Object_1",
      "primitives": [
        {
          "attributes": {
            "NORMAL": 5,
            "POSITION": 4,
            "TEXCOORD_0": 6
          },
          "indices": 7,
          "material": 1,
          "mode": 4
        }
      ]
    },
    {
      "name": "Object_2",
      "primitives": [
        {
          "attributes": {
            "NORMAL": 9,
            "POSITION": 8,
            "TEXCOORD_0": 10
          },
          "indices": 11,
          "material": 2,
          "mode": 4
        }
      ]
    },
    {
      "name": "Object_3",
      "primitives": [
        {
          "attributes": {
            "NORMAL": 13,
            "POSITION": 12,
            "TEXCOORD_0": 14
          },
          "indices": 15,
          "material": 2,
          "mode": 4
        }
      ]
    },
    {
      "name": "Object_4",
      "primitives": [
        {
          "attributes": {
            "NORMAL": 17,
            "POSITION": 16,
            "TEXCOORD_0": 18
          },
          "indices": 19,
          "material": 1,
          "mode": 4
        }
      ]
    },
    {
      "name": "Object_5",
      "primitives": [
        {
          "attributes": {
            "NORMAL": 21,
            "POSITION": 20,
            "TEXCOORD_0": 22
          },
          "indices": 23,
          "material": 0,
          "mode": 4
        }
      ]
    }
  ],
  "nodes": [
    {
      "children": [
        1
      ],
      "matrix": [
        1.0,
        0.0,
        0.0,
        0.0,
        0.0,
        2.220446049250313e-16,
        -1.0,
        0.0,
        0.0,
        1.0,
        2.220446049250313e-16,
        0.0,
        0.0,
        0.0,
        0.0,
        1.0
      ],
      "name": "Sketchfab_model"
    },
    {
      "children": [
        2
      ],
      "matrix": [
        1.0,
        0.0,
        0.0,
        0.0,
        0.0,
        -4.371139006309477e-08,
        0.999999999999999,
        0.0,
        0.0,
        -0.999999999999999,
        -4.371139006309477e-08,
        0.0,
        0.0,
        0.0,
        0.0,
        1.0
      ],
      "name": "Collada visual scene group"
    },
    {
      "children": [
        3,
        4,
        5,
        6,
        7,
        8
      ],
      "name": "Object_2"
    },
    {
      "mesh": 0,
      "name": "Object_3"
    },
    {
      "mesh": 1,
      "name": "Object_4"
    },
    {
      "mesh": 2,
      "name": "Object_5"
    },
    {
      "mesh": 3,
      "name": "Object_6"
    },
    {
      "mesh": 4,
      "name": "Object_7"
    },
    {
      "mesh": 5,
      "name": "Object_8"
    }
  ],
  "samplers": [
    {
      "magFilter": 9729,
      "minFilter": 9987,
      "wrapS": 10497,
      "wrapT": 10497
    }
  ],
  "scene": 0,
  "scenes": [
    {
      "name": "Sketchfab_Scene",
      "nodes": [
        0
      ]
    }
  ],
  "textures": [
    {
      "sampler": 0,
      "source": 0
    },
    {
      "sampler": 0,
      "source": 1
    },
    {
      "sampler": 0,
      "source": 2
    }
  ]
}
