{
  "accessors": [
    {
      "bufferView": 2,
      "componentType": 5126,
      "count": 659,
      "max": [
        3.544469118118286,
        3.605992078781128,
        8.579565048217773
      ],
      "min": [
        -3.544469118118286,
        -3.8019919395446777,
        -2.3841900542720396e-07
      ],
      "type": "VEC3"
    },
    {
      "bufferView": 2,
      "byteOffset": 7908,
      "componentType": 5126,
      "count": 659,
      "max": [
        0.9975185990333557,
        0.9882715940475464,
        1.0
      ],
      "min": [
        -0.9975185990333557,
        -0.9957650899887085,
        -1.0
      ],
      "type": "VEC3"
    },
    {
      "bufferView": 3,
      "componentType": 5126,
      "count": 659,
      "max": [
        1.0,
        1.0,
        0.985340416431427,
        1.0
      ],
      "min": [
        -1.0,
        -1.0,
        -0.9853281378746033,
        1.0
      ],
      "type": "VEC4"
    },
    {
      "bufferView": 1,
      "componentType": 5126,
      "count": 659,
      "max": [
        0.9760739207267761,
        0.9848783016204834
      ],
      "min": [
        0.010543979704380035,
        0.011673149652779102
      ],
      "type": "VEC2"
    },
    {
      "bufferView": 0,
      "componentType": 5125,
      "count": 2766,
      "type": "SCALAR"
    }
  ],
  "asset": {
    "extras": {
      "author": "zephyrin (https://sketchfab.com/zephyrin)",
      "license": "CC-BY-4.0 (http://creativecommons.org/licenses/by/4.0/)",
      "source": "https://sketchfab.com/3d-models/froggy-chair-animal-crossing-fd2ff88dd5574bf39161e747451a6c33",
      "title": "Froggy Chair - Animal Crossing"
    },
    "generator": "Sketchfab-14.21.0",
    "version": "2.0"
  },
  "bufferViews": [
    {
      "buffer": 0,
      "byteLength": 11064,
      "name": "floatBufferViews",
      "target": 34963
    },
    {
      "buffer": 0,
      "byteLength": 5272,
      "byteOffset": 11064,
      "byteStride": 8,
      "name": "floatBufferViews",
      "target": 34962
    },
    {
      "buffer": 0,
      "byteLength": 15816,
      "byteOffset": 16336,
      "byteStride": 12,
      "name": "floatBufferViews",
      "target": 34962
    },
    {
      "buffer": 0,
      "byteLength": 10544,
      "byteOffset": 32152,
      "byteStride": 16,
      "name": "floatBufferViews",
      "target": 34962
    }
  ],
  "buffers": [
    {
      "byteLength": 42696,
      "uri": "scene.bin"
    }
  ],
  "images": [
    {
      "uri": "textures/mReBody_baseColor.png"
    },
    {
      "uri": "textures/mReBody_metallicRoughness.png"
    },
    {
      "uri": "textures/mReBody_normal.png"
    }
  ],
  "materials": [
    {
      "doubleSided": true,
      "name": "mReBody",
      "normalTexture": {
        "index": 2
      },
      "occlusionTexture": {
        "index": 1
      },
      "pbrMetallicRoughness": {
        "baseColorTexture": {
          "index": 0
        },
        "metallicRoughnessTexture": {
          "index": 1
        }
      }
    }
  ],
  "meshes": [
    {
      "name": "mReBody",
      "primitives": [
        {
          "attributes": {
            "NORMAL": 1,
            "POSITION": 0,
            "TANGENT": 2,
            "TEXCOORD_0": 3
          },
          "indices": 4,
          "material": 0,
          "mode": 4
        }
      ]
    }
  ],
  "nodes": [
    {
      "children": [
        1
      ],
      "matrix": [
        1.0,
        0.0,
        0.0,
        0.0,
        0.0,
        2.220446049250313e-16,
        -1.0,
        0.0,
        0.0,
        1.0,
        2.220446049250313e-16,
        0.0,
        0.0,
        0.0,
        0.0,
        1.0
      ],
      "name": "Sketchfab_model"
    },
    {
      "children": [
        2,
        4
      ],
      "name": "Collada visual scene group"
    },
    {
      "children": [
        3
      ],
      "name": "Leg_A_low__mReBody"
    },
    {
      "mesh": 0,
      "name": "mReBody"
    },
    {
      "children": [
        5
      ],
      "name": "EnvironmentAmbientLight"
    },
    {
      "name": "EnvironmentAmbientLight"
    }
  ],
  "samplers": [
    {
      "magFilter": 9729,
      "minFilter": 9987,
      "wrapS": 10497,
      "wrapT": 10497
    }
  ],
  "scene": 0,
  "scenes": [
    {
      "name": "Sketchfab_Scene",
      "nodes": [
        0
      ]
    }
  ],
  "textures": [
    {
      "sampler": 0,
      "source": 0
    },
    {
      "sampler": 0,
      "source": 1
    },
    {
      "sampler": 0,
      "source": 2
    }
  ]
}
